<mxfile host="Electron" agent="Mozilla/5.0 (Windows NT 10.0; Win64; x64) AppleWebKit/537.36 (KHTML, like Gecko) draw.io/24.7.17 Chrome/128.0.6613.36 Electron/32.0.1 Safari/537.36" version="24.7.17">
  <diagram name="Страница — 1" id="C8WC_OW-3AvbiuLKSIhe">
    <mxGraphModel dx="1219" dy="769" grid="1" gridSize="10" guides="1" tooltips="1" connect="1" arrows="1" fold="1" page="1" pageScale="1" pageWidth="827" pageHeight="1169" math="0" shadow="0">
      <root>
        <mxCell id="0" />
        <mxCell id="1" parent="0" />
        <mxCell id="3dDtyKA9Uopbi3fxl_rD-1" value="Начало" style="ellipse;whiteSpace=wrap;html=1;" parent="1" vertex="1">
          <mxGeometry x="88.31" y="15" width="81" height="30" as="geometry" />
        </mxCell>
        <mxCell id="3dDtyKA9Uopbi3fxl_rD-2" value="" style="endArrow=none;html=1;rounded=0;" parent="1" edge="1">
          <mxGeometry width="50" height="50" relative="1" as="geometry">
            <mxPoint x="128.31" y="95" as="sourcePoint" />
            <mxPoint x="128.31" y="45" as="targetPoint" />
          </mxGeometry>
        </mxCell>
        <mxCell id="3dDtyKA9Uopbi3fxl_rD-3" value="" style="endArrow=none;dashed=1;html=1;rounded=0;" parent="1" edge="1">
          <mxGeometry width="50" height="50" relative="1" as="geometry">
            <mxPoint x="129.31" y="65" as="sourcePoint" />
            <mxPoint x="219.31" y="65" as="targetPoint" />
            <Array as="points" />
          </mxGeometry>
        </mxCell>
        <mxCell id="3dDtyKA9Uopbi3fxl_rD-4" value="" style="endArrow=none;html=1;rounded=0;" parent="1" edge="1">
          <mxGeometry width="50" height="50" relative="1" as="geometry">
            <mxPoint x="219.31" y="105" as="sourcePoint" />
            <mxPoint x="219.31" y="25" as="targetPoint" />
          </mxGeometry>
        </mxCell>
        <mxCell id="3dDtyKA9Uopbi3fxl_rD-5" value="&lt;div&gt;#include &amp;lt;math.h&amp;gt;&lt;/div&gt;#include &amp;lt;iostream&amp;gt;&lt;div&gt;#include &amp;lt;clocale&amp;gt;&lt;/div&gt;&lt;div&gt;#include &amp;lt;ctime&amp;gt;&lt;br&gt;&lt;/div&gt;&lt;div&gt;using namespace std;&lt;/div&gt;&lt;div&gt;&lt;br&gt;&lt;/div&gt;" style="text;html=1;align=left;verticalAlign=middle;whiteSpace=wrap;rounded=0;" parent="1" vertex="1">
          <mxGeometry x="229.31" y="55" width="190" height="30" as="geometry" />
        </mxCell>
        <mxCell id="3dDtyKA9Uopbi3fxl_rD-6" value="int main()" style="shape=process;whiteSpace=wrap;html=1;backgroundOutline=1;" parent="1" vertex="1">
          <mxGeometry x="83.56" y="95" width="90.5" height="40" as="geometry" />
        </mxCell>
        <mxCell id="3dDtyKA9Uopbi3fxl_rD-7" value="" style="endArrow=none;html=1;rounded=0;" parent="1" edge="1">
          <mxGeometry width="50" height="50" relative="1" as="geometry">
            <mxPoint x="129.31" y="165" as="sourcePoint" />
            <mxPoint x="129.31" y="135" as="targetPoint" />
          </mxGeometry>
        </mxCell>
        <mxCell id="3dDtyKA9Uopbi3fxl_rD-8" value="{" style="text;html=1;align=center;verticalAlign=middle;whiteSpace=wrap;rounded=0;" parent="1" vertex="1">
          <mxGeometry x="82.81" y="125" width="35.75" height="30" as="geometry" />
        </mxCell>
        <mxCell id="3dDtyKA9Uopbi3fxl_rD-9" value="setlocale(LC_ALL,&quot;Russian&quot;)" style="rounded=0;whiteSpace=wrap;html=1;" parent="1" vertex="1">
          <mxGeometry x="48.81" y="205" width="160" height="40" as="geometry" />
        </mxCell>
        <mxCell id="3dDtyKA9Uopbi3fxl_rD-10" value="" style="endArrow=none;html=1;rounded=0;" parent="1" edge="1">
          <mxGeometry width="50" height="50" relative="1" as="geometry">
            <mxPoint x="128.31" y="275" as="sourcePoint" />
            <mxPoint x="128.31" y="245" as="targetPoint" />
            <Array as="points">
              <mxPoint x="128.31" y="265" />
            </Array>
          </mxGeometry>
        </mxCell>
        <mxCell id="3dDtyKA9Uopbi3fxl_rD-11" value="float eps, x1, x2, x3, pogreshost, k;" style="rounded=0;whiteSpace=wrap;html=1;" parent="1" vertex="1">
          <mxGeometry x="48.31" y="265" width="160.5" height="50" as="geometry" />
        </mxCell>
        <mxCell id="3dDtyKA9Uopbi3fxl_rD-12" value="" style="endArrow=none;html=1;rounded=0;entryX=0.5;entryY=1;entryDx=0;entryDy=0;exitX=0.5;exitY=0;exitDx=0;exitDy=0;" parent="1" target="3dDtyKA9Uopbi3fxl_rD-11" edge="1">
          <mxGeometry width="50" height="50" relative="1" as="geometry">
            <mxPoint x="128.81" y="335" as="sourcePoint" />
            <mxPoint x="127.81" y="325" as="targetPoint" />
            <Array as="points">
              <mxPoint x="127.81" y="345" />
            </Array>
          </mxGeometry>
        </mxCell>
        <mxCell id="3dDtyKA9Uopbi3fxl_rD-14" value="" style="endArrow=none;html=1;rounded=0;entryX=0.5;entryY=1;entryDx=0;entryDy=0;exitX=0.5;exitY=0;exitDx=0;exitDy=0;" parent="1" source="3dDtyKA9Uopbi3fxl_rD-15" edge="1">
          <mxGeometry width="50" height="50" relative="1" as="geometry">
            <mxPoint x="127.37" y="355" as="sourcePoint" />
            <mxPoint x="127.87" y="315" as="targetPoint" />
            <Array as="points">
              <mxPoint x="127.37" y="345" />
            </Array>
          </mxGeometry>
        </mxCell>
        <mxCell id="3dDtyKA9Uopbi3fxl_rD-15" value="k = 0;" style="rounded=0;whiteSpace=wrap;html=1;" parent="1" vertex="1">
          <mxGeometry x="68.25" y="335" width="121" height="30" as="geometry" />
        </mxCell>
        <mxCell id="3dDtyKA9Uopbi3fxl_rD-16" value="" style="endArrow=none;html=1;rounded=0;entryX=0.5;entryY=1;entryDx=0;entryDy=0;exitX=0.5;exitY=0;exitDx=0;exitDy=0;" parent="1" source="3dDtyKA9Uopbi3fxl_rD-17" edge="1">
          <mxGeometry width="50" height="50" relative="1" as="geometry">
            <mxPoint x="127.62" y="405" as="sourcePoint" />
            <mxPoint x="128.12" y="365" as="targetPoint" />
            <Array as="points">
              <mxPoint x="127.62" y="395" />
            </Array>
          </mxGeometry>
        </mxCell>
        <mxCell id="3dDtyKA9Uopbi3fxl_rD-17" value="cout &lt;&lt; &quot;Введите точность - &quot;;" style="rounded=0;whiteSpace=wrap;html=1;" parent="1" vertex="1">
          <mxGeometry x="68.06" y="455" width="121" height="40" as="geometry" />
        </mxCell>
        <mxCell id="3dDtyKA9Uopbi3fxl_rD-18" value="" style="endArrow=none;html=1;rounded=0;entryX=0.5;entryY=1;entryDx=0;entryDy=0;exitX=0.5;exitY=0;exitDx=0;exitDy=0;" parent="1" source="3dDtyKA9Uopbi3fxl_rD-19" edge="1">
          <mxGeometry width="50" height="50" relative="1" as="geometry">
            <mxPoint x="127.18" y="535" as="sourcePoint" />
            <mxPoint x="127.68" y="495" as="targetPoint" />
            <Array as="points">
              <mxPoint x="127.18" y="525" />
            </Array>
          </mxGeometry>
        </mxCell>
        <mxCell id="3dDtyKA9Uopbi3fxl_rD-19" value="cin &gt;&gt; eps;" style="rounded=0;whiteSpace=wrap;html=1;" parent="1" vertex="1">
          <mxGeometry x="82.81" y="505" width="91.25" height="30" as="geometry" />
        </mxCell>
        <mxCell id="3dDtyKA9Uopbi3fxl_rD-20" value="" style="endArrow=none;html=1;rounded=0;entryX=0.5;entryY=1;entryDx=0;entryDy=0;exitX=0.5;exitY=0;exitDx=0;exitDy=0;" parent="1" target="3dDtyKA9Uopbi3fxl_rD-19" edge="1">
          <mxGeometry width="50" height="50" relative="1" as="geometry">
            <mxPoint x="128.555" y="565" as="sourcePoint" />
            <mxPoint x="127.68" y="545" as="targetPoint" />
            <Array as="points">
              <mxPoint x="127.18" y="575" />
            </Array>
          </mxGeometry>
        </mxCell>
        <mxCell id="3dDtyKA9Uopbi3fxl_rD-23" value="pogreshost = abs(x1 - x2);" style="rounded=0;whiteSpace=wrap;html=1;" parent="1" vertex="1">
          <mxGeometry x="82.81" y="555" width="91.25" height="30" as="geometry" />
        </mxCell>
        <mxCell id="3dDtyKA9Uopbi3fxl_rD-24" value="" style="endArrow=none;html=1;rounded=0;entryX=0.5;entryY=1;entryDx=0;entryDy=0;" parent="1" target="3dDtyKA9Uopbi3fxl_rD-23" edge="1">
          <mxGeometry width="50" height="50" relative="1" as="geometry">
            <mxPoint x="128" y="610" as="sourcePoint" />
            <mxPoint x="509.37" y="580" as="targetPoint" />
          </mxGeometry>
        </mxCell>
        <mxCell id="3dDtyKA9Uopbi3fxl_rD-25" value="x1=1" style="rounded=0;whiteSpace=wrap;html=1;" parent="1" vertex="1">
          <mxGeometry x="93.56" y="375" width="70" height="30" as="geometry" />
        </mxCell>
        <mxCell id="3dDtyKA9Uopbi3fxl_rD-26" value="x1=2" style="rounded=0;whiteSpace=wrap;html=1;" parent="1" vertex="1">
          <mxGeometry x="93.94" y="415" width="70" height="30" as="geometry" />
        </mxCell>
        <mxCell id="3dDtyKA9Uopbi3fxl_rD-27" value="while (pogreshost &gt; eps){" style="rhombus;whiteSpace=wrap;html=1;" parent="1" vertex="1">
          <mxGeometry x="404.63" y="215" width="130" height="80" as="geometry" />
        </mxCell>
        <mxCell id="3dDtyKA9Uopbi3fxl_rD-28" value="x3 = x2;" style="rounded=0;whiteSpace=wrap;html=1;" parent="1" vertex="1">
          <mxGeometry x="439.63" y="315" width="60" height="30" as="geometry" />
        </mxCell>
        <mxCell id="3dDtyKA9Uopbi3fxl_rD-32" value="pogreshost = abs(x3 - x2);" style="rounded=0;whiteSpace=wrap;html=1;" parent="1" vertex="1">
          <mxGeometry x="399.25" y="525" width="140" height="40" as="geometry" />
        </mxCell>
        <mxCell id="3dDtyKA9Uopbi3fxl_rD-33" value="" style="endArrow=none;html=1;rounded=0;entryX=0.5;entryY=1;entryDx=0;entryDy=0;" parent="1" target="3dDtyKA9Uopbi3fxl_rD-27" edge="1">
          <mxGeometry width="50" height="50" relative="1" as="geometry">
            <mxPoint x="470" y="315" as="sourcePoint" />
            <mxPoint x="520" y="275" as="targetPoint" />
          </mxGeometry>
        </mxCell>
        <mxCell id="3dDtyKA9Uopbi3fxl_rD-34" value="" style="endArrow=none;html=1;rounded=0;entryX=0.5;entryY=1;entryDx=0;entryDy=0;exitX=0.5;exitY=0;exitDx=0;exitDy=0;" parent="1" source="3dDtyKA9Uopbi3fxl_rD-32" target="3dDtyKA9Uopbi3fxl_rD-28" edge="1">
          <mxGeometry width="50" height="50" relative="1" as="geometry">
            <mxPoint x="470" y="325" as="sourcePoint" />
            <mxPoint x="520" y="275" as="targetPoint" />
          </mxGeometry>
        </mxCell>
        <mxCell id="3dDtyKA9Uopbi3fxl_rD-30" value="x2 = x1;" style="rounded=0;whiteSpace=wrap;html=1;" parent="1" vertex="1">
          <mxGeometry x="439.63" y="425" width="60" height="30" as="geometry" />
        </mxCell>
        <mxCell id="3dDtyKA9Uopbi3fxl_rD-31" value="k++;" style="rounded=0;whiteSpace=wrap;html=1;" parent="1" vertex="1">
          <mxGeometry x="439.63" y="475" width="60" height="30" as="geometry" />
        </mxCell>
        <mxCell id="3dDtyKA9Uopbi3fxl_rD-29" value="x1 = x2 - ((0.1 * pow(x2, 2) - x2 * log(x2)) / (0.2 * x2 - log(x2) - 1));" style="rounded=0;whiteSpace=wrap;html=1;" parent="1" vertex="1">
          <mxGeometry x="334" y="365" width="280" height="40" as="geometry" />
        </mxCell>
        <mxCell id="3dDtyKA9Uopbi3fxl_rD-35" value="" style="endArrow=none;html=1;rounded=0;entryX=0.5;entryY=1;entryDx=0;entryDy=0;" parent="1" target="3dDtyKA9Uopbi3fxl_rD-32" edge="1">
          <mxGeometry width="50" height="50" relative="1" as="geometry">
            <mxPoint x="469" y="205" as="sourcePoint" />
            <mxPoint x="520" y="275" as="targetPoint" />
            <Array as="points">
              <mxPoint x="270" y="205" />
              <mxPoint x="270" y="595" />
              <mxPoint x="469" y="595" />
            </Array>
          </mxGeometry>
        </mxCell>
        <mxCell id="3dDtyKA9Uopbi3fxl_rD-37" value="" style="endArrow=none;html=1;rounded=0;entryX=1;entryY=0.5;entryDx=0;entryDy=0;" parent="1" target="3dDtyKA9Uopbi3fxl_rD-27" edge="1">
          <mxGeometry width="50" height="50" relative="1" as="geometry">
            <mxPoint x="700" y="565" as="sourcePoint" />
            <mxPoint x="520" y="275" as="targetPoint" />
            <Array as="points">
              <mxPoint x="700" y="255" />
            </Array>
          </mxGeometry>
        </mxCell>
        <mxCell id="3dDtyKA9Uopbi3fxl_rD-38" value="cout &amp;lt;&amp;lt; &quot;кол-во итераций - &quot; &amp;lt;&amp;lt; k&amp;lt;&amp;lt;endl;" style="shape=parallelogram;perimeter=parallelogramPerimeter;whiteSpace=wrap;html=1;fixedSize=1;" parent="1" vertex="1">
          <mxGeometry x="580" y="465" width="240" height="30" as="geometry" />
        </mxCell>
        <mxCell id="3dDtyKA9Uopbi3fxl_rD-39" value="cout &lt;&lt; &quot;найденный корень - &quot; &lt;&lt; x1;" style="shape=parallelogram;perimeter=parallelogramPerimeter;whiteSpace=wrap;html=1;fixedSize=1;" parent="1" vertex="1">
          <mxGeometry x="580" y="515" width="240" height="30" as="geometry" />
        </mxCell>
        <mxCell id="3dDtyKA9Uopbi3fxl_rD-40" value="" style="endArrow=none;html=1;rounded=0;entryX=0.5;entryY=1;entryDx=0;entryDy=0;exitX=0.5;exitY=0;exitDx=0;exitDy=0;" parent="1" source="3dDtyKA9Uopbi3fxl_rD-39" target="3dDtyKA9Uopbi3fxl_rD-38" edge="1">
          <mxGeometry width="50" height="50" relative="1" as="geometry">
            <mxPoint x="620" y="415" as="sourcePoint" />
            <mxPoint x="670" y="365" as="targetPoint" />
          </mxGeometry>
        </mxCell>
        <mxCell id="3dDtyKA9Uopbi3fxl_rD-41" value="" style="endArrow=none;html=1;rounded=0;entryX=0.5;entryY=1;entryDx=0;entryDy=0;" parent="1" target="3dDtyKA9Uopbi3fxl_rD-39" edge="1">
          <mxGeometry width="50" height="50" relative="1" as="geometry">
            <mxPoint x="700" y="575" as="sourcePoint" />
            <mxPoint x="670" y="365" as="targetPoint" />
          </mxGeometry>
        </mxCell>
        <mxCell id="3dDtyKA9Uopbi3fxl_rD-42" value="return 0" style="ellipse;whiteSpace=wrap;html=1;" parent="1" vertex="1">
          <mxGeometry x="662.43" y="675" width="80" height="30" as="geometry" />
        </mxCell>
        <mxCell id="3dDtyKA9Uopbi3fxl_rD-43" value="}" style="text;html=1;align=center;verticalAlign=middle;whiteSpace=wrap;rounded=0;" parent="1" vertex="1">
          <mxGeometry x="730.87" y="685" width="60" height="30" as="geometry" />
        </mxCell>
        <mxCell id="3dDtyKA9Uopbi3fxl_rD-44" value="}" style="text;html=1;align=center;verticalAlign=middle;whiteSpace=wrap;rounded=0;" parent="1" vertex="1">
          <mxGeometry x="680" y="245" width="60" height="30" as="geometry" />
        </mxCell>
        <mxCell id="3dDtyKA9Uopbi3fxl_rD-45" value="{" style="text;html=1;align=center;verticalAlign=middle;whiteSpace=wrap;rounded=0;" parent="1" vertex="1">
          <mxGeometry x="429" y="285" width="35.75" height="30" as="geometry" />
        </mxCell>
        <mxCell id="uEPCJRgT210gwXOUCtgd-1" value="unsigned int end_time = clock();" style="rounded=0;whiteSpace=wrap;html=1;" parent="1" vertex="1">
          <mxGeometry x="613.9999999999999" y="565" width="176.87" height="30" as="geometry" />
        </mxCell>
        <mxCell id="uEPCJRgT210gwXOUCtgd-2" value="cout &amp;lt;&amp;lt; &quot; Время выполнения - &quot;&amp;lt;&amp;lt;end_time-start_time&amp;lt;&amp;lt;endl;" style="shape=parallelogram;perimeter=parallelogramPerimeter;whiteSpace=wrap;html=1;fixedSize=1;" parent="1" vertex="1">
          <mxGeometry x="594.6" y="615" width="215.68" height="40" as="geometry" />
        </mxCell>
        <mxCell id="uEPCJRgT210gwXOUCtgd-3" value="" style="endArrow=none;html=1;rounded=0;entryX=0.5;entryY=1;entryDx=0;entryDy=0;exitX=0.5;exitY=0;exitDx=0;exitDy=0;" parent="1" source="uEPCJRgT210gwXOUCtgd-2" target="uEPCJRgT210gwXOUCtgd-1" edge="1">
          <mxGeometry width="50" height="50" relative="1" as="geometry">
            <mxPoint x="450" y="415" as="sourcePoint" />
            <mxPoint x="500" y="365" as="targetPoint" />
          </mxGeometry>
        </mxCell>
        <mxCell id="uEPCJRgT210gwXOUCtgd-4" value="" style="endArrow=none;html=1;rounded=0;entryX=0.5;entryY=1;entryDx=0;entryDy=0;exitX=0.5;exitY=0;exitDx=0;exitDy=0;" parent="1" source="3dDtyKA9Uopbi3fxl_rD-42" target="uEPCJRgT210gwXOUCtgd-2" edge="1">
          <mxGeometry width="50" height="50" relative="1" as="geometry">
            <mxPoint x="450" y="415" as="sourcePoint" />
            <mxPoint x="500" y="365" as="targetPoint" />
          </mxGeometry>
        </mxCell>
        <mxCell id="uEPCJRgT210gwXOUCtgd-7" value="unsigned int start_time = clock();" style="rounded=0;whiteSpace=wrap;html=1;" parent="1" vertex="1">
          <mxGeometry x="39.99999999999994" y="155" width="176.87" height="30" as="geometry" />
        </mxCell>
        <mxCell id="uEPCJRgT210gwXOUCtgd-9" value="" style="endArrow=none;html=1;rounded=0;entryX=0.5;entryY=1;entryDx=0;entryDy=0;" parent="1" target="uEPCJRgT210gwXOUCtgd-7" edge="1">
          <mxGeometry width="50" height="50" relative="1" as="geometry">
            <mxPoint x="128.31" y="205" as="sourcePoint" />
            <mxPoint x="159.31" y="375" as="targetPoint" />
          </mxGeometry>
        </mxCell>
        <mxCell id="zfHDrJJLjHwHG-yI5eqO-1" value="d" style="ellipse;whiteSpace=wrap;html=1;aspect=fixed;" vertex="1" parent="1">
          <mxGeometry x="113.44" y="610" width="30" height="30" as="geometry" />
        </mxCell>
        <mxCell id="zfHDrJJLjHwHG-yI5eqO-2" value="d" style="ellipse;whiteSpace=wrap;html=1;aspect=fixed;" vertex="1" parent="1">
          <mxGeometry x="454.25" y="150" width="30" height="30" as="geometry" />
        </mxCell>
        <mxCell id="zfHDrJJLjHwHG-yI5eqO-3" value="" style="endArrow=none;html=1;rounded=0;entryX=0.5;entryY=1;entryDx=0;entryDy=0;exitX=0.5;exitY=0;exitDx=0;exitDy=0;" edge="1" parent="1" source="3dDtyKA9Uopbi3fxl_rD-27" target="zfHDrJJLjHwHG-yI5eqO-2">
          <mxGeometry width="50" height="50" relative="1" as="geometry">
            <mxPoint x="350" y="280" as="sourcePoint" />
            <mxPoint x="400" y="230" as="targetPoint" />
          </mxGeometry>
        </mxCell>
      </root>
    </mxGraphModel>
  </diagram>
</mxfile>
